# xmcd
#
# Track frame offsets:
#	150
#	18415
#	65047
#
# Disc length: 1274 seconds
#
# Revision: 0
# Processed by: cddbd v1.5.2PL0 Copyright (c) Steve Scherf et al.
# Submitted via: EasyCDDAExtractor 16.0.9.1
#
DISCID=2204f803
DTITLE=DJ Visage - Thunder
DYEAR=2001
DGENRE=Trance
TTITLE0=Thunder (Radio Mix)
TTITLE1=Thunder (Club Mix)
TTITLE2=Thunder (Extended Mix)
EXTD=
EXTT0=
EXTT1=
EXTT2=
PLAYORDER=
